{
  "title": "Orange is the new black S04E11 720p WEBRip x264-TheRival",
  "uid": 14973694,
  "size": 932325423,
  "categoryP": "video",
  "categoryS": "hd___tv_shows",
  "magnet": "?xt=urn:btih:1628f0c36c844f5343f032aa9cb04e835f78e0d4&amp;dn=Orange+is+the+new+black+S04E11+720p+WEBRip+x264-TheRival&amp;tr=udp%3A%2F%2Ftracker.leechers-paradise.org%3A6969&amp;tr=udp%3A%2F%2Fzer0day.ch%3A1337&amp;tr=udp%3A%2F%2Fopen.demonii.com%3A1337&amp;tr=udp%3A%2F%2Ftracker.coppersurfer.tk%3A6969&amp;tr=udp%3A%2F%2Fexodus.desync.com%3A6969",
  "seeders": 78,
  "leechers": 8,
  "uploader": "TheRival",
  "files": 2,
  "time": 1466216931,
  "description": "http://extraimago.com/image/aG7V \nhttp://extraimago.com/image/aG7u \nhttp://extraimago.com/image/aG7v\r\n\r\nVideo\r\nID                                       : 1\r\nFormat                                   : AVC\r\nFormat/Info                              : Advanced Video Codec\r\nFormat profile                           :   \r\nFormat settings, CABAC                   : Yes\r\nFormat settings, ReFrames                : 2 frames\r\nFormat settings, GOP                     : M=1, N=24\r\nCodec ID                                 : avc1\r\nCodec ID/Info                            : Advanced Video Coding\r\nDuration                                 : 59mn 56s\r\nBit rate mode                            : Variable\r\nBit rate                                 : 1 942 Kbps\r\nMaximum bit rate                         : 3 000 Kbps\r\nWidth                                    : 1 280 pixels\r\nHeight                                   : 720 pixels\r\nDisplay aspect ratio                     : 16:9\r\nFrame rate mode                          : Constant\r\nFrame rate                               : 23.976 (24000/1001) fps\r\nColor space                              : YUV\r\nChroma subsampling                       : 4:2:0\r\nBit depth                                : 8 bits\r\nScan type                                : Progressive\r\nBits/(Pixel*Frame)                       : 0.088\r\nStream size                              : 833 MiB (94%)\r\nEncoded date                             : UTC 2016-06-18 00:13:41\r\nTagged date                              : UTC 2016-06-18 00:22:09\r\nColor primaries                          : BT.709\r\nTransfer characteristics                 : BT.709\r\nMatrix coefficients                      : BT.709\r\n\r\nAudio\r\nID                                       : 2\r\nFormat                                   : AAC\r\nFormat/Info                              : Advanced Audio Codec\r\nFormat profile                           : LC\r\nCodec ID                                 : 40\r\nDuration                                 : 59mn 56s\r\nBit rate mode                            : Variable\r\nBit rate                                 : 128 Kbps\r\nMaximum bit rate                         : 131 Kbps\r\nChannel(s)                               : 2 channels\r\nChannel positions                        : Front: L R\r\nSampling rate                            : 48.0 KHz\r\nFrame rate                               : 46.875 fps (1024 spf)\r\nCompression mode                         : Lossy\r\nStream size                              : 54.9 MiB (6%)\r\nTitle                                    : Undetermined (aac 2.0)\r\nDefault                                  : Yes\r\nAlternate group                          : 1",
  "parsed": {
    "xt": "urn:btih:1628f0c36c844f5343f032aa9cb04e835f78e0d4",
    "dn": "Orange is the new black S04E11 720p WEBRip x264-TheRival",
    "tr": [
      "udp://exodus.desync.com:6969",
      "udp://open.demonii.com:1337",
      "udp://tracker.coppersurfer.tk:6969",
      "udp://tracker.leechers-paradise.org:6969",
      "udp://zer0day.ch:1337"
    ],
    "infoHash": "1628f0c36c844f5343f032aa9cb04e835f78e0d4",
    "infoHashBuffer": {
      "type": "Buffer",
      "data": [
        22,
        40,
        240,
        195,
        108,
        132,
        79,
        83,
        67,
        240,
        50,
        170,
        156,
        176,
        78,
        131,
        95,
        120,
        224,
        212
      ]
    },
    "name": "Orange is the new black S04E11 720p WEBRip x264-TheRival",
    "announce": [
      "udp://exodus.desync.com:6969",
      "udp://open.demonii.com:1337",
      "udp://tracker.coppersurfer.tk:6969",
      "udp://tracker.leechers-paradise.org:6969",
      "udp://zer0day.ch:1337"
    ],
    "urlList": []
  },
  "previous": 286,
  "peers": 101,
  "last_updated": "2016-12-26T17:16:30.311Z"
}